<?xml version="1.0" encoding="UTF-8"?>
<svg xmlns="http://www.w3.org/2000/svg" viewBox="0 0 601.52 113.3">
  <defs>
    <style>.a{fill:#e5007d}.b{fill:#1c1917}</style>
  </defs>
  <path class="a" d="M448.58 110.3a9.39 9.39 0 0 1-2.85-2.63 16.94 16.94 0 0 1-2-3.54 22.56 22.56 0 0 1-1.21-4 35.33 35.33 0 0 1-.59-4 14.37 14.37 0 0 1 .87-2.76 19.63 19.63 0 0 1 1.32-2.37c.48-.79 1-1.55 1.54-2.28s1.08-1.45 1.6-2.19a1.05 1.05 0 0 1 .61.09 2.53 2.53 0 0 1 .52-1.08 6.73 6.73 0 0 1 .81-.87l.88-.8a3.41 3.41 0 0 0 .7-.91 9.45 9.45 0 0 0 2.22-1.22 18.82 18.82 0 0 0 1.84-1.5c.58-.53 1.19-1 1.82-1.49a8.54 8.54 0 0 1 2.23-1.17 4.35 4.35 0 0 1 1.09-1c.45-.3.9-.58 1.35-.85s.89-.55 1.3-.84a3.17 3.17 0 0 0 1-1.14.79.79 0 0 0 .93.19c.38-.13.72-.27 1-.41a.62.62 0 0 1 .54.05 4.17 4.17 0 0 1 .44.29 1 1 0 0 0 .34.21c.09 0 .18-.09.26-.35.29 0 .38.11.28.34s-.17.38-.19.45a1 1 0 0 1 .9.09 2.08 2.08 0 0 0 1.13.27c.2.16.26.29.2.41a1.37 1.37 0 0 0-.09.55 3.59 3.59 0 0 1 2.65 1.55 3.7 3.7 0 0 1 .4 2.58 6.11 6.11 0 0 1-1.28 2.67 5.66 5.66 0 0 1-2.35 1.8c-1.06.41-2 .81-2.95 1.2s-1.78.81-2.6 1.26a16.12 16.12 0 0 0-2.3 1.53 9.24 9.24 0 0 0-1.8 1.9 10.36 10.36 0 0 0-2.54 1.47 16.75 16.75 0 0 0-2 1.9c-.62.67-1.21 1.38-1.77 2.1s-1.13 1.45-1.7 2.16a2.43 2.43 0 0 1-.16 1.41c-.17.35-.37.69-.58 1a5.44 5.44 0 0 0 .65 1.67c.28.45.58.91.89 1.38a40.55 40.55 0 0 0 9.16.54q4.78-.25 9.46-.73a8.42 8.42 0 0 0 1.22 1.07 12.65 12.65 0 0 1 1.24 1 4.45 4.45 0 0 1 1 1.26 3.64 3.64 0 0 1 .34 1.82 19.9 19.9 0 0 1-1.76 1.94c-.65.64-1.29 1.25-1.94 1.87a6 6 0 0 1-1.14.12c-.45 0-.91.06-1.39.11a14 14 0 0 0-1.42.24 5.15 5.15 0 0 0-1.31.5 40.29 40.29 0 0 1-6.94 0 52.85 52.85 0 0 1-6.66-1c-.45-.41-.9-.8-1.37-1.16a3.67 3.67 0 0 0-1.8-.68m31.55-.93a2.13 2.13 0 0 1-.42-.47 3.1 3.1 0 0 1-.36-.73 7.09 7.09 0 0 1-1.4-1.94 11.19 11.19 0 0 1-.86-2.35 11.76 11.76 0 0 1-.34-2.51 17.3 17.3 0 0 1 .1-2.43c.06-.37.11-.75.14-1.14.1-.69.2-1.38.31-2a4.22 4.22 0 0 1 .6-1.71 1.84 1.84 0 0 1-.09-1.28c.13-.48.25-.93.39-1.33a1.38 1.38 0 0 0 .12-.31 2.5 2.5 0 0 1 .08-.25l.84-3.73c.28-1.19.55-2.34.82-3.45.48-2 .95-4 1.39-6s.8-4 1.09-6.2a2.78 2.78 0 0 1 .69-.5 2 2 0 0 1 .26-.14 1 1 0 0 1 .36-.09 18.38 18.38 0 0 0 2.75.78 8.24 8.24 0 0 0 2.63.22l1 .69a11.11 11.11 0 0 1 1.38 1.48 3.44 3.44 0 0 1 .54 2.22 1.71 1.71 0 0 1-.46.65 19.8 19.8 0 0 1-.44 2.22q-.27 1-.54 1.86c-.22.67-.41 1.34-.58 2a12.93 12.93 0 0 0-.37 2.4 2 2 0 0 0-.33.68 5.41 5.41 0 0 1-.12.55c-.05.22-.11.46-.19.7a1.78 1.78 0 0 1-.41.66 11.29 11.29 0 0 1-.33 2.75c-.21.72-.41 1.44-.62 2.14q-.53 2-1 3.84a14.89 14.89 0 0 0-.26 4.25 5 5 0 0 1 1.15-.29 4.36 4.36 0 0 1 1.35.06 11.69 11.69 0 0 1 4-1.64c1.48-.31 3-.57 4.45-.78a33.79 33.79 0 0 0 3.43-.55 2.3 2.3 0 0 0 .73.32 2.79 2.79 0 0 0 .53 0h.32a2.25 2.25 0 0 1 .44 0 4.51 4.51 0 0 0 1.54.87c.48.14 1 .27 1.55.38s.95.26 1.42.41a6.75 6.75 0 0 1 1.39.62l.78 2.65c.33.36.48.61.46.75a1.4 1.4 0 0 1-.12.77l.18.68a3.62 3.62 0 0 0-1.27.6 4.82 4.82 0 0 0-.62.69q-.58.12-1.11.18a8.16 8.16 0 0 0-2.14.56 10.27 10.27 0 0 0-3.57-.18c-.5.06-1 .13-1.5.22s-1 .21-1.5.33-1 .26-1.57.37a14.06 14.06 0 0 1-1.58.26l-.88.27a2.28 2.28 0 0 0-.51.21c-1.16.53-2.42 1.07-3.77 1.62a16 16 0 0 1-4.15 1.06 7.62 7.62 0 0 1-5.22-1 6.42 6.42 0 0 0-.39-.6c-.08-.1-.17-.21-.26-.34m30.3-28.09a1.91 1.91 0 0 0-.36-.81 12.88 12.88 0 0 0 .34-2c.05-.63.08-1.24.09-1.81s0-1 .08-1.41a10.34 10.34 0 0 1 .2-1.26 2.36 2.36 0 0 0 1.27-.92 8.9 8.9 0 0 0 .6-1.06 1.62 1.62 0 0 1 1.28.12 4.69 4.69 0 0 1 .78 1 8.2 8.2 0 0 0 .89 1.16 3.21 3.21 0 0 0 1.55.87 10.55 10.55 0 0 0 .5 1.07c.18.34.38.69.6 1.06.4.71.79 1.44 1.17 2.21a8.17 8.17 0 0 1 .73 2.19 11.46 11.46 0 0 0-.66 2.93 19.6 19.6 0 0 0-.06 3.33 20 20 0 0 0 .43 3.1 10.74 10.74 0 0 0 .82 2.43l.41.81 1.16-.24a25.92 25.92 0 0 0 3.32-1.48 16.38 16.38 0 0 0 2.7-1.78 21.21 21.21 0 0 0 2.33-2.23 32.92 32.92 0 0 0 2.25-2.86 19.41 19.41 0 0 0 1.89-3.63 24.37 24.37 0 0 0 1.23-4.12 31.37 31.37 0 0 0 .58-4.15 30.77 30.77 0 0 0 0-3.82 1.81 1.81 0 0 0 .94-1.66l-.24-.67a.94.94 0 0 1-.19-.49 1.39 1.39 0 0 1 .08-.46 3.12 3.12 0 0 1 1.6-2 16 16 0 0 1 1.93 1.18c.61.44 1.17.87 1.69 1.31a11.33 11.33 0 0 0 .7 2.42c.3.67.6 1.3.92 1.91s.6 1.14.86 1.68a9.08 9.08 0 0 1 .64 2 19.21 19.21 0 0 0-.43 3.09c0 1-.09 2-.12 3v.59c-.51 1.17-1 2.37-1.5 3.59s-.87 2.27-1.16 3.17a3.33 3.33 0 0 0-.48.8c-.12.3-.24.6-.35.9a5 5 0 0 0-.23.57 2.45 2.45 0 0 1-.29.57l-1.33-.34-.13 1.69-.82.3-.55.82a19.77 19.77 0 0 1-2.17 3.85 17.73 17.73 0 0 1-2.73 2.89 30 30 0 0 1-3.53 2.52q-2 1.22-4.56 2.64a18.2 18.2 0 0 0-1.85 0c-.52 0-1 .08-1.52.1s-1 .09-1.44.11h-1.61a1.43 1.43 0 0 0-1.38-.76 3.7 3.7 0 0 1-1.76-1.3c-.42-.6-.87-1.26-1.35-2l-.7-1.21a7.17 7.17 0 0 0-.86-1.13l1-.44-1.56-1.44-.38-.28a2.3 2.3 0 0 1-.38-.33l-.12-1q-.71-4.32-1.1-8a21 21 0 0 1 .24-6.61z"></path>
  <path class="a" d="M548.82 77.6a9.68 9.68 0 0 1-4-2.13 13.16 13.16 0 0 1-2.8-3.6 5.69 5.69 0 0 1 1.42-2.6 12.17 12.17 0 0 1 2.44-2 17.11 17.11 0 0 1 3-1.47c1.07-.41 2.1-.78 3.1-1.11h.32c-.01 0 .08 0 .27.07 1.23-.53 2.66-1.08 4.28-1.64a19.11 19.11 0 0 1 5.26-1 1.89 1.89 0 0 1 .87-.34l1.11-.16q.58-.06 1.11-.15a2.53 2.53 0 0 0 .88-.29 1.4 1.4 0 0 0 1 .34 3.08 3.08 0 0 1 1.39.41c.14 0 .14 0 0-.18s-.16-.26 0-.36a2.4 2.4 0 0 1 1.26.18 6.94 6.94 0 0 1 1.06.61l.93.62a1.42 1.42 0 0 0 .91.22 6.57 6.57 0 0 0 1.27.95c.47.29.94.58 1.39.89a5.5 5.5 0 0 1 1.14 1.06 2.65 2.65 0 0 1 .57 1.38c0 .22.07.33.25.35a.47.47 0 0 1 .41.27 7.71 7.71 0 0 1-.22 3.47A11.65 11.65 0 0 1 576 74.2a24.1 24.1 0 0 1-1.89 2.5 20.48 20.48 0 0 0-1.83 2.52 9.37 9.37 0 0 0 1.62 1.29c.6.38 1.21.75 1.82 1.11a19.35 19.35 0 0 1 1.77 1.17 7.41 7.41 0 0 1 1.51 1.47.93.93 0 0 0 .74.35 7.39 7.39 0 0 0 .6 1.24c.24.42.47.83.7 1.21a4 4 0 0 1 .44 1 .94.94 0 0 1-.18.83.83.83 0 0 1 .51.62 2.94 2.94 0 0 1 .08.71c-.67 1-1.13 1.78-1.37 2.2s-.41.73-.54.92a5.85 5.85 0 0 1-.36.52c-.13.16-.42.48-.86 1a55.48 55.48 0 0 1-5.52 3.72 24 24 0 0 1-6.13 2.55 2 2 0 0 1-.7.7 6.15 6.15 0 0 1-1.09.53c-.41.15-.86.29-1.32.42l-1.28.35a.41.41 0 0 1-.33-.31.42.42 0 0 0-.33-.31c0 .43-.15.67-.48.73a3.25 3.25 0 0 1-1.27-.1 8.6 8.6 0 0 1-1.63-.57 15.65 15.65 0 0 1-1.48-.74 7.89 7.89 0 0 1-.55 1.08 2.3 2.3 0 0 1-.74.84h-1.1a.74.74 0 0 0-.63.34 2.2 2.2 0 0 1-.69-.38l-.48-.43a2.51 2.51 0 0 0-.53-.37 3.13 3.13 0 0 0-.83-.26 1.14 1.14 0 0 0-.26-.8 1.08 1.08 0 0 0-.81-.58c.14-.3 0-.65-.34-1.06a5.21 5.21 0 0 1-.91-1.43V98a4.6 4.6 0 0 1 0-.75 2.07 2.07 0 0 1 .17-.64.88.88 0 0 1 .49-.43 3.09 3.09 0 0 0-.58-1.28 1.72 1.72 0 0 0 .53-1c.07-.38.12-.77.17-1.17a7.88 7.88 0 0 1 .21-1.18 2.15 2.15 0 0 1 .58-1 1.36 1.36 0 0 0-.24-.24.51.51 0 0 1-.15-.36 12.37 12.37 0 0 0 .86-2.38 16.3 16.3 0 0 0 .3-1.86c.06-.6.12-1.24.18-1.93a14.65 14.65 0 0 1 .56-2.64 4.3 4.3 0 0 1 0-1.72c.12-.52.25-1 .39-1.53a8.46 8.46 0 0 0 .28-1.56 4.93 4.93 0 0 0-.26-1.85 1.78 1.78 0 0 0-1.23.79 2.86 2.86 0 0 0-.34 1.49 1.65 1.65 0 0 1-1.18.53 3.41 3.41 0 0 0-1.3.34M567.71 69a26.68 26.68 0 0 0-6.4 1.32 17.36 17.36 0 0 0-5.13 2.68 18.21 18.21 0 0 0 2.38 1.34A4.42 4.42 0 0 1 560.5 76a16.75 16.75 0 0 0 4.17-3.09 23.59 23.59 0 0 0 3-3.86m5.61 16.18a10.72 10.72 0 0 0-3.84-.91 11.65 11.65 0 0 0-3.18.39 21.62 21.62 0 0 0-2.81 1 18.76 18.76 0 0 1-2.69.95c-.32 1.26-.65 2.64-1 4.14s-.64 3-.94 4.41a19.9 19.9 0 0 0 3.4-1.19 32.87 32.87 0 0 0 3-1.55c.94-.55 1.86-1.11 2.76-1.65s1.85-1.08 2.83-1.59a1.76 1.76 0 0 1 .57-1.09c.33-.29.66-.56 1-.83a4.75 4.75 0 0 0 .82-.87 1.42 1.42 0 0 0 .13-1.2M600 54.61a2.5 2.5 0 0 1 1 .09.81.81 0 0 1 .44.41 1.27 1.27 0 0 1 .08.6v.65a10.71 10.71 0 0 1-3.17 1.26c-1.34.34-2.77.63-4.29.88a9 9 0 0 0 .83 1.36 11.83 11.83 0 0 1 .87 1.45 4.34 4.34 0 0 1 .44 1.47 1.74 1.74 0 0 1-.47 1.38 1.71 1.71 0 0 1 .27.84.94.94 0 0 1-.23.59 2 2 0 0 1-.54.43q-.33.21-.66.39a7.77 7.77 0 0 1-2.67-1.89c-.93-.94-1.84-2-2.73-3.07-.47 1.1-.83 2-1.07 2.62a7.78 7.78 0 0 0-.43 1.4 5.24 5.24 0 0 1-1 1.1 3 3 0 0 1-1 .52 5.77 5.77 0 0 1-1 .21c-.35 0-.71.1-1.1.17a1.1 1.1 0 0 0-.79-.4 1.64 1.64 0 0 0-1.08.14.5.5 0 0 0-.13-.61.57.57 0 0 0-.56-.21 10.76 10.76 0 0 1 .61-1.43l.74-1.44c.25-.47.47-.94.67-1.39a4.22 4.22 0 0 0 .34-1.24 1.82 1.82 0 0 1 .16-.31c.07-.1.14-.2.21-.32-1 .24-1.7.45-2.27.61a6.65 6.65 0 0 0-1.23.46 4.92 4.92 0 0 1-1.46-.07 2.22 2.22 0 0 1-.87-.43 3.79 3.79 0 0 1-.61-.66c-.17-.24-.36-.5-.58-.76a1.15 1.15 0 0 0 .1-.86 1 1 0 0 0-.55-.74.85.85 0 0 0 .51-.49c.12-.25.13-.43 0-.55a12 12 0 0 1 1.62-.4l1.71-.32c.57-.1 1.1-.22 1.61-.35a6.27 6.27 0 0 0 1.32-.51l.77-.09c-.59-.61-1.07-1.08-1.45-1.4a6 6 0 0 0-.91-.68 2.9 2.9 0 0 1-.48-1.17 2.06 2.06 0 0 1 .09-.93 3.9 3.9 0 0 1 .41-.85c.18-.28.35-.59.53-.93a2.08 2.08 0 0 0 .86-.49 1.26 1.26 0 0 0 .51-.88.71.71 0 0 0 .68.1 1 1 0 0 0 .59-.32 9.82 9.82 0 0 1 1 1l1 1.12c.31.38.63.72.94 1a3.42 3.42 0 0 0 1 .73 5.2 5.2 0 0 0 1-1.18 12.41 12.41 0 0 1 1-1.33 4.62 4.62 0 0 1 1.14-1 2.54 2.54 0 0 1 1.37-.39 2.67 2.67 0 0 1 .74-.76 1.18 1.18 0 0 1 .67-.17 1.83 1.83 0 0 1 .64.16c.21.1.42.18.64.26a7.13 7.13 0 0 1-.68 2.95 38.28 38.28 0 0 1-1.79 3.66c.55 0 1.16-.06 1.83-.13a14.77 14.77 0 0 1 2-.11 6.48 6.48 0 0 1 1.71.24 1.63 1.63 0 0 1 1.09.9"></path>
  <path class="b" d="M157.77 25.43c.49-.7.77-1.11 1.06-1.51 4.07-5.73 8-7 15-4.56 5.44 1.9 9 6 11.49 11 .15.31.29.62.44.92 0 0 .07.06.23.19.21-.5.43-1 .62-1.43a25.1 25.1 0 0 1 4.61-7.67c4.17-4.57 9.34-5.28 15.55-2.76 5.8 2.35 9.33 6.94 11.61 12.58a33.46 33.46 0 0 1 2.17 12.57c0 3.16 0 6.33.08 9.5a10.86 10.86 0 0 0 4.37 8.63 3.78 3.78 0 0 1 1 .85c.31.55.76 1.29.59 1.76s-1 .81-1.61.81c-6.35.06-12.71 0-19.07 0-2.19 0-4.38.05-6.57-.06a2.29 2.29 0 0 1-1.75-.93 2.16 2.16 0 0 1 .44-1.93c2.93-3 4.11-6.66 4.77-10.59a44.3 44.3 0 0 0-1.19-21.06 16.37 16.37 0 0 0-2.49-4.73c-1.68-2.21-4-2.23-6-.21-2.43 2.56-3.51 5.83-4.65 9.06a11.24 11.24 0 0 0-.4 4.76c.24 3.46.13 6.93.2 10.4 0 1.62.05 3.26.24 4.87a10.24 10.24 0 0 0 3.9 6.71c.36.31.85.53 1.07.91a3.36 3.36 0 0 1 .71 2c-.08.38-1.14.79-1.76.79h-24.87a6.9 6.9 0 0 1-1 0c-1.51-.2-2.06-1.35-1.19-2.59.54-.77 1.27-1.4 1.81-2.16a20.61 20.61 0 0 0 3.2-8.85 44.94 44.94 0 0 0-1-19.71 26.34 26.34 0 0 0-2.37-5.22 5.56 5.56 0 0 0-2.01-1.84 2.59 2.59 0 0 0-3.77.57 19.72 19.72 0 0 0-1.91 3c-3 5.48-3.27 11.42-3 17.46A42 42 0 0 0 158 58.09a11.6 11.6 0 0 0 3.08 5.1 2.46 2.46 0 0 1 .69 2.08c-.15.49-1.18 1-1.83 1-4.42.09-8.85 0-13.27.06h-11.73c-.61 0-1.66-.44-1.73-.82a2.8 2.8 0 0 1 .74-1.95c.68-.82 1.6-1.41 2.35-2.18a9.65 9.65 0 0 0 2.74-6.87q.09-7.69-.08-15.4a10.23 10.23 0 0 0-4-7.62 6.39 6.39 0 0 1-1.25-1.1c-.33-.49-.72-1.22-.56-1.66s.94-.77 1.5-.87c2.19-.39 4.43-.51 6.59-1 3.78-.91 6.94-3.09 10.08-5.28 1.29-.9 2.64-1.75 4-2.56a5.75 5.75 0 0 1 1.68-.62c1.39-.32 1.85.16 1.56 1.53-.2 1-.41 1.93-.56 2.9-.13.74-.18 1.5-.31 2.64m153.54 30.77c.61-2.79 1.35-5.56 1.79-8.37.87-5.58 1.58-11.17 2.3-16.77a3.71 3.71 0 0 0-.38-2c-1.48-3.08-3.27-5.93-6.34-7.72a2.18 2.18 0 0 1-.83-.79c-.24-.51-.58-1.21-.4-1.62a1.94 1.94 0 0 1 1.47-.73c1.58-.1 3.18-.05 4.76-.05h22.81c.88 0 1.78 0 2.23.9s-.1 1.62-.63 2.32a10.34 10.34 0 0 0-1.88 5.77c-.35 5.75 1 11.24 2.72 16.62 1.24 3.82 2.8 7.53 4.22 11.29.15.38.37.73.75 1.47.8-3.83 1.58-7.27 2.23-10.73a86.3 86.3 0 0 0 1.95-18.3 12.59 12.59 0 0 0-1.76-6.86 1.45 1.45 0 0 1 1.29-2.4c5-.05 10.05 0 15.08 0 1.1 0 1.44.71.78 1.62a4.46 4.46 0 0 1-1.32 1.2 13.59 13.59 0 0 0-6.11 8q-5 16.08-10 32.2a18.39 18.39 0 0 1-.74 2 4.55 4.55 0 0 1-4.69 3.08c-2.75-.09-5.5 0-8.25 0-3.64 0-5.29-1.21-6.37-4.62-3.34-10.63-2.54-8.25-5.71-18.63-.18-.57-.37-1.14-.63-1.94-.2.48-.33.75-.42 1-2 6.42-3.92 12.84-5.9 19.25a15.52 15.52 0 0 1-1.1 2.57 4.06 4.06 0 0 1-3.85 2.32h-8.89c-3.45-.06-5.09-1.24-6.15-4.56-1.9-6-3.59-12.05-5.61-18-1.77-5.22-3.79-10.35-5.89-15.44a14.4 14.4 0 0 0-5.76-6.87 1.73 1.73 0 0 1-.68-.56c-.29-.59-.78-1.33-.61-1.8s1.07-.81 1.65-.81q14-.08 28 0a2.22 2.22 0 0 1 1.64.93 1.91 1.91 0 0 1-.23 1.72 11.87 11.87 0 0 0-2.29 7.47 49 49 0 0 0 2.95 16c1.32 4 2.91 7.94 4.37 11.9zM491.1 31.4a24.31 24.31 0 0 0 3-1.65c3.06-2.27 6-4.67 9.1-6.94a21.5 21.5 0 0 1 9.07-4.36A10.13 10.13 0 0 1 521 21c3.18 2.77 2.84 6.93-.73 9.21S513.32 32 510 30a7.46 7.46 0 0 0-7.91-.28c-.14.08-.27.17-.54.35 5.34 1.81 8.15 6.09 10.83 10.46s5.15 8.78 7.89 13.07a30.67 30.67 0 0 0 9.27 9.5 2 2 0 0 1 .78.66c.28.58.69 1.29.55 1.82-.1.37-1 .73-1.57.74-4.51.07-9 0-13.53 0h-13.26c-1 0-1.93 0-2.4-1.09s.2-1.62.8-2.25a7.46 7.46 0 0 0 1.9-7.27c-1.22-4.88-2.58-9.74-4.17-14.52a16.82 16.82 0 0 0-3-4.71A4.35 4.35 0 0 0 492 35c-.7 0-1 .26-1 1a99.2 99.2 0 0 0 2.43 21.38 11.74 11.74 0 0 0 3 6.12 2.12 2.12 0 0 1 .39 1.84c-.16.45-1 .75-1.51 1a3.55 3.55 0 0 1-1.27.07h-24.33c-.81 0-1.87.13-2-.92a2.7 2.7 0 0 1 1-2c3.65-2.67 5.07-6.27 5-10.68q-.08-14.76 0-29.53c0-4.45-1.38-8.1-5.08-10.79-.52-.38-.68-1.25-1-1.9.64-.31 1.27-.89 1.92-.9A26.73 26.73 0 0 0 483.7 5c1.72-1.13 3.39-2.34 5.15-3.41A13.28 13.28 0 0 1 492 .16c1.46-.44 1.91 0 1.66 1.52-.48 2.91-1.17 5.81-1.4 8.73-.54 6.74-.86 13.49-1.27 20.23a5.72 5.72 0 0 0 .11.76M246.3 47.31a13.18 13.18 0 0 0 7.85 8.75c5.65 2.26 13.45.37 17.49-4.19.71-.8 1.39-1.47 2.49-.69.91.65 1 1.65.26 2.82-5.09 7.92-12.46 12-21.79 12.28-9.56.3-17.52-3.25-23-11.23-6.61-9.63-5-21.77 3.6-29.69 8.41-7.69 23.08-9.93 33.55-2.85 3.13 2.11 5.77 4.7 6.71 8.47 1.25 5.05-.44 9.37-4.19 12.74-6.29 5.67-13.61 6.56-21.5 4-.33-.11-.64-.24-1-.36a4.87 4.87 0 0 0-.51 0m11.76-13.44a18.65 18.65 0 0 0-1.84-8.82c-2-3.95-5.1-4.2-7.75-.67-3.38 4.52-3.78 13.13-.81 17.93 1.05 1.71 2.38 3.17 4.57 3.06s3.39-1.81 4.25-3.64a18.64 18.64 0 0 0 1.58-7.86"></path>
  <path class="b" d="M439.4 29.63c2.17-2.41 4.07-4.73 6.19-6.83 2.48-2.44 5.32-4.39 9-4.53a14.57 14.57 0 0 1 9.41 2.85 8.67 8.67 0 0 1 .8 13.62 12.49 12.49 0 0 1-11.51 3.35c-3-.61-4.2-2.61-3.76-5.59.17-1.14.49-2.26.65-3.4.21-1.45-.42-2.19-1.8-1.79a11.36 11.36 0 0 0-3.7 1.92 22.69 22.69 0 0 0-5.61 7 2.24 2.24 0 0 0-.32 1c-.29 6.33-.47 12.66 1 18.9.64 2.79 1.59 5.4 3.86 7.37a2.05 2.05 0 0 1 .52 1.8c-.18.49-1 .82-1.55 1.07a3.39 3.39 0 0 1-1.28.07h-23.86c-.81 0-1.72.16-2.06-.88s.34-1.63 1.05-2.14c3.59-2.55 5.06-6.1 5-10.41-.08-4.58-.05-9.15-.17-13.73a10.48 10.48 0 0 0-4.26-8 5.1 5.1 0 0 1-1.14-1 2.25 2.25 0 0 1-.44-1.58 2 2 0 0 1 1.4-.84c2.19-.37 4.43-.48 6.59-1 3.77-.9 6.95-3.05 10.09-5.25 1.33-.93 2.72-1.78 4.1-2.64a5.06 5.06 0 0 1 1.19-.46c1.9-.57 2.3-.13 2 1.79-.53 3.07-.93 6.16-1.4 9.34m-52.13-12.39c8.31.38 15.86 3.72 20.44 11.41s2.45 17-4.79 22.82c-10.06 8.06-25.54 7.58-34.92-1.07-8.42-7.76-7.82-20.36 1.28-27.48 4.83-3.78 10.47-5.61 18-5.68m5.7 20a33.91 33.91 0 0 0-1.49-10.53 12.21 12.21 0 0 0-2.93-5.3c-1.52-1.46-3.29-1.57-4.74-.11a12.09 12.09 0 0 0-2.27 3.21 25 25 0 0 0-2.29 9.48c-.39 5.43 0 10.8 2.29 15.91a11.27 11.27 0 0 0 2.26 3.21 3 3 0 0 0 4.62 0 12.15 12.15 0 0 0 2.14-3.12A30 30 0 0 0 393 37.24"></path>
  <path class="b" d="M372.8 66.15a.7.7 0 0 0-.24.09c-.56.22-.94 0-.94-.37v-6.82-.2c0-.05.25-.45.46-.49a2.26 2.26 0 0 1 .91.21 15.73 15.73 0 0 0 2.07.7 58.91 58.91 0 0 0 12.37.68l3.65-.11a39.56 39.56 0 0 0 5.79-.51 6.67 6.67 0 0 0 2.35-.82 1.35 1.35 0 0 1 .82-.15.65.65 0 0 1 .45.45V65.86c0 .18 0 .39-.29.48s-.69-.15-1-.2a1.51 1.51 0 0 0-.3 0h-26.1m-267.53-48c9.16.46 17.38 4.6 22.38 14 4.82 9.07 2.51 20.6-5.35 27.56a27.68 27.68 0 0 1-38.09-1.36A23 23 0 0 1 85.67 25c5.28-4.58 11.42-6.78 19.6-6.85m6.22 23.33c-.07-1.08-.16-3.11-.34-5.12a30.85 30.85 0 0 0-.51-3.45c-.64-3.13-1.42-6.22-3.31-8.88-2.08-2.93-4.6-3-6.68-.05a16.16 16.16 0 0 0-2.17 4.36 47.34 47.34 0 0 0-.61 26.12 15.38 15.38 0 0 0 3.37 7c1.8 2 3.85 2 5.52-.11a14.48 14.48 0 0 0 2.09-3.54c2.06-4.93 2.58-10.14 2.64-16.37"></path>
  <path class="b" d="M83.36 3.86C83.07 2.11 81.65.93 79 .54a32.13 32.13 0 0 0-4.17-.33H48.55c-.94 0-2.14-.36-2.56.88s.65 1.75 1.41 2.34a11.41 11.41 0 0 1 4.68 9.52V24.8c-3.52 1.41-14.56 6.5-18.19 7.89h-2.25c.14-8.35.12-16.62 2.63-24.59.53-1.69 1.79-3.14 2.66-4.73.37-.67.94-1.49.79-2.08s-1.18-.74-1.84-1a2 2 0 0 0-.77 0H9.24C8.61.2 7.55.61 7.47 1a2.71 2.71 0 0 0 .77 1.92c.83 1 1.92 1.72 2.75 2.68 2.13 2.47 2.39 5.49 2.39 8.57v27.2a2.17 2.17 0 0 1-1.22 1.32 29.21 29.21 0 0 0-9.65 7.94c-2.59 3.56-3.53 7.2-1.09 11 1.89 3 6.69 4.63 11.74 4.74H29c2.36 0 4.72.05 7.07-.07a2.25 2.25 0 0 0 1.71-1 2.14 2.14 0 0 0-.56-1.89A11.59 11.59 0 0 1 34.06 58 57.87 57.87 0 0 1 32 44.21c-.14-2.58 0-5.18 0-7.82h20.1v1.44c0 4.54-.14 9.07 0 13.6.2 5-1.1 9.19-5.38 12.18a2.39 2.39 0 0 0-.72 1.86c.09.89 1 .88 1.74.88h26.58a2.93 2.93 0 0 0 2.11-1.06c.53-.78-.15-1.55-.75-2.23a9.1 9.1 0 0 1-1.91-2.68 42 42 0 0 1-2.06-7.24A133 133 0 0 1 70.46 28c.08-3.1.19-6.19.47-9.26.12-.39 1-1 1.39-1.23 1.83-1.25 4.82-3.31 6.52-4.62 3.38-2.59 5.1-5.59 4.52-9M6.18 64a4.55 4.55 0 0 1-1.88-.93A9 9 0 0 1 1.75 60a6.77 6.77 0 0 1-.44-4.26c.88-4.52 4.51-8.11 9.38-11.25.8-.51 1.65-1 2.69-1.62v9.41a26.86 26.86 0 0 1-.38 4.19 9 9 0 0 1-1.69 3.93c-.36.46-.74.91-1.14 1.34a21.22 21.22 0 0 1-1.85 1.68 2.76 2.76 0 0 1-2.14.58M52 32.65H36C39.21 31.4 48.8 27 52.09 25.7v6.2a7.25 7.25 0 0 1-.09.75m27.71-21.94a37.55 37.55 0 0 1-8.65 6.8 58.6 58.6 0 0 1 1.08-6.69c.57-2.51 1.25-5 3-7 .27-.31.61-.61.89-.92a4.11 4.11 0 0 1 4.06-.81 2.35 2.35 0 0 1 1.75 1.8c.58 2.44-.33 4.68-2.17 6.79"></path>
</svg>
